<?xml version="1.0" encoding="UTF-8"?>
<svg width="1783px" height="222px" viewBox="0 0 1783 222" version="1.1" xmlns="http://www.w3.org/2000/svg" xmlns:xlink="http://www.w3.org/1999/xlink">
    <!-- Generator: sketchtool 46.2 (44496) - http://www.bohemiancoding.com/sketch -->
    <title>499E9EAE-6DD7-40CE-ADCA-37D40B1D4066</title>
    <desc>Created with sketchtool.</desc>
    <defs>
        <linearGradient x1="50%" y1="-57.872204%" x2="50%" y2="97.5685587%" id="linearGradient-1">
            <stop stop-color="#FFFFFF" offset="0%"></stop>
            <stop stop-color="#A4CEDF" offset="100%"></stop>
        </linearGradient>
    </defs>
    <g id="Page-1" stroke="none" stroke-width="1" fill="none" fill-rule="evenodd">
        <g id="Desktop-Copy" fill="url(#linearGradient-1)">
            <path d="M240,196.663 C253.521,199.663 264.391,201.163 266.267,214.663 C268.143,228.162 285.029,217.662 305.668,214.663 C326.306,211.663 328.183,208.663 352.573,205.663 C376.964,202.663 403.231,208.663 429.499,207.163 C455.766,205.663 519.558,198.163 555.206,190.663 C590.854,183.164 622.75,192.163 658.118,193.663 C693.486,195.163 716.561,186.163 729.695,172.664 C742.828,159.165 736.891,173.473 761.282,177.293 C785.673,181.112 804.744,172.664 842.408,176.484 C880.072,180.304 864.783,195.163 886.029,208.663 C907.275,222.162 966.085,208.663 966.085,208.663 C966.085,208.663 982.985,204.163 1000.422,196.663 C1017.86,189.163 1088.053,180.164 1101.735,176.484 C1115.417,172.804 1148.093,151.665 1180.224,148.665 C1212.355,145.666 1245.657,133.666 1258.791,123.167 C1271.923,112.667 1335.715,97.668 1362.665,96.168 C1389.614,94.668 1493.318,66.17 1523.338,58.67 C1553.358,51.17 1661.76563,28.203125 1680,18.172 C1692.15625,11.4845833 1726.32812,5.42725 1782.51563,0 L7.07767178e-15,0 L1.43635104e-14,186.589844 C54.9952707,164.142575 91.5369374,157.469398 109.625,166.570312 C139.247396,181.474667 182.705729,191.505562 240,196.663 Z" id="Fill-1"></path>
        </g>
    </g>
</svg>