<?xml version="1.0" encoding="UTF-8"?>
<svg width="40px" height="40px" viewBox="0 0 40 40" version="1.1" xmlns="http://www.w3.org/2000/svg" xmlns:xlink="http://www.w3.org/1999/xlink">
    <!-- Generator: sketchtool 46.2 (44496) - http://www.bohemiancoding.com/sketch -->
    <title>24C05485-BC47-444E-B32B-C5F8EEFA6209</title>
    <desc>Created with sketchtool.</desc>
    <defs>
        <polygon id="path-1" points="40 0 40 40 0 40 1.06279146e-15 0 40 0"></polygon>
    </defs>
    <g id="Page-1" stroke="none" stroke-width="1" fill="none" fill-rule="evenodd">
        <g id="Desktop-Copy" transform="translate(-1505.000000, -913.000000)">
            <g id="Page-1" transform="translate(1505.000000, 913.000000)">
                <mask id="mask-2" fill="white">
                    <use xlink:href="#path-1"></use>
                </mask>
                <g id="Clip-2"></g>
                <path d="M33.118597,21.1748466 C32.2804999,21.3706125 31.5995147,20.8500759 31.3243186,20.5920665 C31.2812879,20.5519093 31.2522672,20.501211 31.2397583,20.4464969 C31.2272494,20.3917829 31.2302516,20.333555 31.2512665,20.277837 C31.3853621,19.9249564 31.7666337,19.1564496 32.6047309,18.9606837 C33.7030134,18.7041801 35.1695583,19.5289068 35.1695583,19.5289068 C35.1695583,19.5289068 34.2168795,20.918343 33.118597,21.1748466 M30.656843,25.5655251 C29.3183894,25.5655251 28.4522722,24.5912131 28.0755038,24.0541117 L31.9682774,24.0541117 C32.1594136,24.0541117 32.3140237,23.8995068 32.3140237,23.7082586 C32.3140237,23.5165083 32.1594136,23.3614015 31.9682774,23.3614015 L28.0755038,23.3614015 C28.4527726,22.825304 29.3183894,21.850992 30.656843,21.850992 C32.499656,21.850992 34.529102,23.7082586 34.529102,23.7082586 C34.529102,23.7082586 32.499656,25.5655251 30.656843,25.5655251 M24.5324794,29.5696914 C22.6346272,28.9311933 21.9196177,27.0674012 21.6874523,26.2200861 C21.6844502,26.2095448 21.6859512,26.1995056 21.6834495,26.1889643 L27.0297587,27.9869991 C27.0657844,27.9990463 27.1033111,28.0045679 27.1393368,28.0045679 C27.2839398,28.0045679 27.4190361,27.9137124 27.4670703,27.7686448 C27.5276134,27.5869339 27.4300439,27.390666 27.2494152,27.3299283 L21.903106,25.5318935 C21.911612,25.524866 21.9166156,25.5153287 21.9251216,25.5093052 C22.6196165,24.9732077 24.3098207,23.9185814 26.207673,24.5565776 C28.6944448,25.3928495 30.5957995,28.8202593 30.5957995,28.8202593 C30.5957995,28.8202593 27.0197516,30.4059633 24.5324794,29.5696914 M20.4125439,20.9564923 C20.391529,20.9710492 20.3675119,20.9765708 20.3454962,20.9891199 L20.3454962,14.7241081 C20.3454962,14.5328598 20.1913864,14.377753 20.0002502,14.377753 C19.809114,14.377753 19.6545038,14.5328598 19.6545038,14.7241081 L19.6545038,20.9891199 C19.6324881,20.9770728 19.608471,20.9710492 19.5869557,20.9564923 C18.7843839,20.4153752 17.0896764,19.0098761 17.0896764,16.7921995 C17.0896764,13.8858283 19.9997498,10.6858082 19.9997498,10.6858082 C19.9997498,10.6858082 22.9103236,13.8858283 22.9103236,16.7921995 C22.9103236,19.0098761 21.2156161,20.4153752 20.4125439,20.9564923 M18.3125477,26.2200861 C18.0798819,27.0674012 17.3653728,28.9311933 15.4675206,29.5696914 C12.9802484,30.4059633 9.40420049,28.8202593 9.40420049,28.8202593 C9.40420049,28.8202593 11.3055552,25.3928495 13.792327,24.5565776 C15.6896789,23.9185814 17.3803835,24.9732077 18.0748784,25.5093052 C18.0833844,25.5153287 18.088388,25.524866 18.0963937,25.5318935 L12.7500844,27.3299283 C12.5694557,27.390666 12.4718862,27.5869339 12.5329297,27.7686448 C12.5809639,27.9137124 12.7155598,28.0045679 12.8601629,28.0045679 C12.8961885,28.0045679 12.9337153,27.9990463 12.9697409,27.9869991 L18.3160502,26.1884624 C18.3140488,26.1995056 18.3155498,26.2095448 18.3125477,26.2200861 M5.61750247,23.7082586 C5.61750247,23.7082586 7.64694845,21.850992 9.48976146,21.850992 C10.8282151,21.850992 11.6938319,22.825304 12.0711007,23.3614015 L8.1778267,23.3614015 C7.98719087,23.3614015 7.83258071,23.5165083 7.83258071,23.7082586 C7.83258071,23.8995068 7.98719087,24.0541117 8.1778267,24.0541117 L12.0711007,24.0541117 C11.6943322,24.5912131 10.8282151,25.5655251 9.48976146,25.5655251 C7.64694845,25.5655251 5.61750247,23.7082586 5.61750247,23.7082586 M4.97704615,19.5289068 C4.97704615,19.5289068 6.4430907,18.7041801 7.54137323,18.9606837 C8.37997073,19.1564496 8.76124239,19.9249564 8.89533793,20.277837 C8.91585254,20.333555 8.91935504,20.3917829 8.90684613,20.4464969 C8.89383686,20.501211 8.86531654,20.5519093 8.82228588,20.5920665 C8.5470898,20.8500759 7.8661046,21.3706125 7.02800746,21.1748466 C5.92972493,20.918343 4.97704615,19.5289068 4.97704615,19.5289068 M7.34473312,16.0578262 C7.91964275,16.3429418 8.06574684,16.965879 8.10277323,17.2449709 C8.1087775,17.2886418 8.10127216,17.3313087 8.08275897,17.368956 C8.06424578,17.4066033 8.0352251,17.4382271 7.99669765,17.4603135 C7.75302403,17.5998595 7.17110942,17.8613827 6.59619979,17.5762671 C5.8426629,17.202806 5.38733848,16.0317241 5.38733848,16.0317241 C5.38733848,16.0317241 6.59119623,15.6843651 7.34473312,16.0578262 M9.27510851,12.9125202 C9.85201956,13.5525243 9.72893186,14.4023492 9.63836734,14.7687829 C9.623857,14.8265087 9.59383561,14.8762031 9.55230602,14.9138504 C9.51077643,14.9514977 9.458239,14.9765959 9.40019764,14.9851293 C9.02743205,15.0393414 8.17232278,15.0779926 7.59491137,14.4374867 C6.83837234,13.5987049 6.84487697,11.9121061 6.84487697,11.9121061 C6.84487697,11.9121061 8.51806912,12.0737385 9.27510851,12.9125202 M10.3583803,8.98615834 C10.3583803,8.98615834 14.1540848,9.92734072 15.6111229,12.1154015 C16.7229151,13.7849336 16.1520083,15.6984201 15.8187709,16.5110997 C15.8142677,16.521139 15.8072627,16.5286684 15.8027595,16.5382057 L12.6705278,11.8343017 C12.5639518,11.6751791 12.3487985,11.6315083 12.1916866,11.7389286 C12.0320729,11.8453449 11.9895425,12.0601855 12.0956181,12.219308 L15.2278498,16.9232121 C15.2173424,16.923714 15.2078356,16.9277297 15.1968277,16.9277297 C14.3212039,16.9252199 12.3407928,16.7219245 11.2285003,15.0523925 C9.77196252,12.8643317 10.3583803,8.98615834 10.3583803,8.98615834 M12.7165605,6.0792852 C12.7165605,6.0792852 13.8043356,6.70222245 14.0630199,7.50436081 C14.2606607,8.11675681 13.9179165,8.65636804 13.7442928,8.87773413 C13.7172736,8.91236965 13.6812479,8.93696588 13.6417197,8.95001694 C13.6021916,8.96256604 13.5586605,8.96356997 13.5161302,8.95152283 C13.2464381,8.87422039 12.6535156,8.63779537 12.4563752,8.02590134 C12.1976909,7.22326101 12.7165605,6.0792852 12.7165605,6.0792852 M12.624495,19.9942274 L17.6415696,22.5768319 C17.6320628,22.5828554 17.6260586,22.5908868 17.6165518,22.5959065 C16.8495053,23.0210699 15.0207023,23.8096553 13.2399335,22.8930691 C10.9062707,21.6913675 9.53929675,18.0164895 9.53929675,18.0164895 C9.53929675,18.0164895 13.3124851,16.9874635 15.6461479,18.1886631 C17.4264163,19.1052493 17.8547215,21.0558811 17.9577949,21.9287964 C17.9587956,21.9393377 17.9557935,21.9493769 17.9567942,21.9599182 L12.9402199,19.3778157 C12.7710994,19.290474 12.5624507,19.3567332 12.4748884,19.5279029 C12.3878263,19.6980687 12.4553745,19.9068857 12.624495,19.9942274 M16.1680197,5.19331886 C16.1680197,5.19331886 18.4516468,6.72481082 18.8934616,8.51983385 C19.2131894,9.81992044 18.4791664,10.9011508 18.0498605,11.398095 L17.117196,7.60425163 C17.0716636,7.41902694 16.887032,7.30206935 16.698898,7.35075985 C16.5137661,7.39643857 16.4001851,7.58467504 16.4462179,7.7704017 L17.3783821,11.5617353 C16.7694482,11.3233024 15.6191286,10.7134162 15.2984001,9.4098159 C14.8565853,7.61479288 16.1680197,5.19331886 16.1680197,5.19331886 M19.9997498,4.57088358 C19.9997498,4.57088358 20.8443516,5.49951686 20.8443516,6.34281627 C20.8443516,6.98583207 20.3525012,7.39342678 20.1198354,7.55054149 C20.0833094,7.57563969 20.0417798,7.58768682 19.9997498,7.58768682 C19.9582202,7.58768682 19.9166906,7.57563969 19.8801646,7.55054149 C19.6469985,7.39342678 19.1556484,6.98583207 19.1556484,6.34281627 C19.1556484,5.49951686 19.9997498,4.57088358 19.9997498,4.57088358 M21.1065384,8.81900435 C21.5478528,7.02448329 23.8319803,5.49248936 23.8319803,5.49248936 C23.8319803,5.49248936 25.1429143,7.91446535 24.7015999,9.70898641 C24.3808714,11.0130887 23.2300514,11.6229749 22.6206172,11.8614078 L23.5532817,8.0695722 C23.5993145,7.88384555 23.4862339,7.69611103 23.301102,7.65043232 C23.1109666,7.60274574 22.9278361,7.71819745 22.882804,7.9039241 L21.9496391,11.6972656 C21.5203332,11.1998193 20.7868106,10.1195929 21.1065384,8.81900435 M29.6411193,8.98615834 C29.6411193,8.98615834 30.2280375,12.8643317 28.7709993,15.0523925 C27.6592072,16.7219245 25.6787961,16.9252199 24.8026719,16.9277297 C24.7921644,16.9277297 24.7826576,16.923714 24.7716498,16.9232121 L27.9038815,12.219308 C28.0099571,12.0601855 27.9674268,11.8453449 27.8083134,11.7389286 C27.6502008,11.6325122 27.4355478,11.6756811 27.3289719,11.8343017 L24.1972405,16.5382057 C24.1927373,16.5286684 24.185232,16.521139 24.1812291,16.5110997 C23.8479917,15.6984201 23.2770849,13.7849336 24.3888771,12.1154015 C25.8459152,9.92734072 29.6411193,8.98615834 29.6411193,8.98615834 M25.9364797,7.50436081 C26.1956644,6.70222245 27.2834395,6.0792852 27.2834395,6.0792852 C27.2834395,6.0792852 27.8018088,7.22326101 27.5436248,8.02590134 C27.345984,8.63779537 26.7535619,8.87422039 26.4833694,8.95152283 C26.4413395,8.96356997 26.3978084,8.96256604 26.3582803,8.95001694 C26.3187521,8.93696588 26.2827264,8.91236965 26.2557072,8.87773413 C26.0820835,8.65636804 25.7393393,8.11675681 25.9364797,7.50436081 M27.525612,19.5279029 C27.4380496,19.3572352 27.2299013,19.2909759 27.0602804,19.3778157 L22.0432058,21.9599182 C22.0442065,21.9493769 22.040704,21.9393377 22.0422051,21.9287964 C22.1452785,21.0558811 22.5730833,19.1052493 24.3538521,18.1886631 C26.6875149,16.9874635 30.4602029,18.0164895 30.4602029,18.0164895 C30.4602029,18.0164895 29.0937293,21.6913675 26.7600665,22.8930691 C24.9792977,23.8096553 23.1504947,23.0210699 22.3834482,22.5959065 C22.3739414,22.5908868 22.3679372,22.5828554 22.3589307,22.5768319 L27.375505,19.9942274 C27.5451259,19.9068857 27.612674,19.6980687 27.525612,19.5279029 M30.7248915,12.9125202 C31.4819309,12.0737385 33.1546227,11.9121061 33.1546227,11.9121061 C33.1546227,11.9121061 33.1616277,13.5987049 32.4050886,14.4374867 C31.8276772,15.0779926 30.972568,15.0393414 30.5998024,14.9851293 C30.541761,14.9765959 30.4892236,14.9514977 30.447694,14.9138504 C30.4061644,14.8762031 30.376143,14.8265087 30.3616327,14.7687829 C30.2710681,14.4023492 30.1474801,13.5525243 30.7248915,12.9125202 M34.6126615,16.0317241 C34.6126615,16.0317241 34.1573371,17.202806 33.4038002,17.5762671 C32.8288906,17.8613827 32.2464756,17.5998595 32.002802,17.4603135 C31.9647749,17.4382271 31.9357542,17.4066033 31.917241,17.368956 C31.8987278,17.3313087 31.8912225,17.2886418 31.8967264,17.2449709 C31.9337528,16.965879 32.0803573,16.3429418 32.6552669,16.0578262 C33.4088038,15.6843651 34.6126615,16.0317241 34.6126615,16.0317241 M19.9997498,0 C8.95438,0 0,8.98314656 0,20.0645024 C0,30.3843789 7.76703401,38.8806204 17.7566516,40 C17.9527914,39.3941295 18.7613675,36.6569202 18.902468,32.1788999 C19.0640832,27.0729228 19.0640832,23.7082586 19.0640832,23.7082586 L20.9359168,23.7082586 C20.9359168,23.7082586 20.9359168,27.0729228 21.097532,32.1788999 C21.2386325,36.6569202 22.0472086,39.3941295 22.2433484,40 C32.2324656,38.8806204 40,30.3843789 40,20.0645024 C40,8.98314656 31.04562,0 19.9997498,0" id="Fill-1" fill="#E50005" mask="url(#mask-2)"></path>
            </g>
        </g>
    </g>
</svg>